<svg width="112" height="113" viewBox="0 0 112 113" fill="none" xmlns="http://www.w3.org/2000/svg">
<path d="M2.26255 110.2C2.26255 110.2 -3.97654 72.4178 27.4376 74.4631C40.9192 75.3379 48.1874 82.6319 52.0724 90.6848" stroke="white" stroke-width="3" stroke-miterlimit="10" stroke-linecap="round" stroke-linejoin="round"/>
<path d="M18.9733 74.6947L20.3369 53.5332C20.3369 53.5332 11.6279 45.0043 10.9461 37.6589C10.2643 30.3135 11.4607 23.6628 11.4607 23.6628" stroke="white" stroke-width="3" stroke-miterlimit="10" stroke-linecap="round" stroke-linejoin="round"/>
<path d="M31.4253 49.7769C31.4253 49.7769 27.5017 56.4276 20.8381 54.215" stroke="white" stroke-width="3" stroke-miterlimit="10" stroke-linecap="round" stroke-linejoin="round"/>
<path d="M21.3528 8.63747C21.3528 8.63747 27.6691 0.816092 47.4669 2.15396C50.4514 2.35978 54.941 3.20882 58.1313 3.86489C61.7332 4.611 65.0264 6.63067 67.059 9.70519C69.426 13.3071 70.4294 18.5171 63.6757 24.2288C63.457 24.4089 63.1869 24.5118 62.9039 24.5246L45.6274 24.8462C45.3829 24.8462 45.1385 24.9363 44.9456 25.0778L32.9691 33.7739C32.8533 33.864 33.072 35.3948 32.9819 35.2405C28.9555 28.2552 14.7664 39.2669 31.7213 49.3524" stroke="white" stroke-width="3" stroke-miterlimit="10" stroke-linecap="round" stroke-linejoin="round"/>
<path d="M63.856 24.5633C63.856 24.5633 65.3868 39.8844 64.5378 44.1553C64.5378 44.1553 74.0443 53.5976 63.6887 55.7587L61.296 59.5151C61.296 59.5151 66.0815 73.6784 42.5144 67.0277L42.3472 77.2675" stroke="white" stroke-width="3" stroke-miterlimit="10" stroke-linecap="round" stroke-linejoin="round"/>
<path d="M73.7612 64.1203L87.2428 57.6368C87.2428 57.6368 92.7101 42.9589 102.603 55.0769C102.603 55.0769 117.628 63.2713 104.133 71.8002C104.133 71.8002 95.7717 85.6291 86.3809 70.2694L73.7612 64.1203Z" stroke="white" stroke-width="3" stroke-miterlimit="10" stroke-linecap="round" stroke-linejoin="round"/>
<path d="M56.0603 111.396C56.0603 111.396 55.9445 98.1331 52.1367 90.852C52.1367 90.852 53.1787 86.2595 58.5045 85.3204C63.1227 84.51 67.6637 87.1857 69.5676 91.4695C71.1756 95.0586 73.697 101.066 77.5047 110.881" stroke="white" stroke-width="3" stroke-miterlimit="10" stroke-linecap="round" stroke-linejoin="round"/>
<path d="M15.0366 14.2719L15.2167 13.5901" stroke="white" stroke-width="3" stroke-miterlimit="10" stroke-linecap="round" stroke-linejoin="round"/>
</svg>
