<svg width="22" height="36" viewBox="0 0 22 36" fill="none" xmlns="http://www.w3.org/2000/svg">
<g clip-path="url(#clip0_83_1295)">
<path d="M3.54243 12.9497C5.21583 13.3294 12.2977 14.7642 20.1647 12.6215C20.1647 12.6215 22.0196 12.4479 21.4833 14.5255C21.0698 16.1312 21.338 17.2596 21.4833 17.6908C21.5335 17.8373 21.5419 17.9946 21.5056 18.1438C21.3128 18.9439 20.4915 21.1925 17.6336 19.1989C17.6336 19.1989 16.7564 18.4964 15.7898 18.4476C14.9824 18.4069 14.3175 19.0606 14.3427 19.8444C14.4014 21.6075 14.3427 25.5458 14.1499 26.9101C14.1136 27.1596 13.9935 27.3874 13.8063 27.5637C13.2364 28.0981 11.9178 29.1261 11.8563 27.3034L11.8899 19.0633C11.8899 18.4747 11.6105 17.9024 11.0993 17.5878C10.778 17.3925 10.3813 17.2894 9.95386 17.4955C9.52643 17.7017 9.28897 18.1275 9.28059 18.5778L9.22751 21.1599C9.22192 21.4149 9.09621 21.6508 8.88389 21.8C8.571 22.017 8.06256 22.2855 7.43119 22.2828C6.42827 22.2774 5.6265 21.48 5.5371 20.509C5.49799 20.0668 5.49519 19.5515 5.61811 19.0985C5.90307 18.0245 2.26573 19.5135 1.37456 19.028C0.575575 18.594 -0.226203 13.9776 1.24046 12.833C1.4891 12.6378 1.82434 12.5862 2.13443 12.6567L3.54243 12.9497Z" stroke="white" stroke-miterlimit="10"/>
<path d="M2.47528 19.0958L2.43896 33.8808C2.43896 33.8808 2.6876 34.9901 3.79389 35.0932H18.8796C18.8796 35.0932 20.092 35.0932 20.0557 33.8808C20.0194 32.6684 20.092 19.6844 20.092 19.6844" stroke="white" stroke-miterlimit="10"/>
<path d="M11.3896 8.50134C11.3896 8.50134 9.99839 11.7914 12.387 12.6919" stroke="white" stroke-linecap="round" stroke-linejoin="round"/>
<path d="M9.68005 9.6433C9.68005 9.6433 5.50634 6.06573 14.2197 0.90686C14.2197 0.90686 12.7838 4.0586 15.1975 6.01962C15.787 6.49699 16.1194 7.22389 15.9797 7.95623C15.7954 8.91097 14.9656 9.79519 12.4961 9.74637" stroke="white" stroke-linecap="round" stroke-linejoin="round"/>
</g>
<defs>
<clipPath id="clip0_83_1295">
<rect width="22" height="35" fill="white" transform="translate(0 0.5)"/>
</clipPath>
</defs>
</svg>
