<svg width="31" height="32" viewBox="0 0 31 32" fill="none" xmlns="http://www.w3.org/2000/svg">
<path d="M11.3543 28.7916V24.3193C11.3543 23.1817 12.2817 22.2574 13.4307 22.2498H17.6395C18.794 22.2498 19.7299 23.1763 19.7299 24.3193V28.8055C19.7297 29.7713 20.5083 30.5607 21.4836 30.5833H24.2895C27.0867 30.5833 29.3542 28.3384 29.3542 25.5693V12.8468C29.3393 11.7574 28.8226 10.7344 27.9513 10.069L18.3551 2.41602C16.6739 1.08349 14.2841 1.08349 12.6029 2.41602L3.04883 10.0829C2.17417 10.7456 1.65665 11.7703 1.64587 12.8607V25.5693C1.64587 28.3384 3.9134 30.5833 6.71054 30.5833H9.51644C10.516 30.5833 11.3263 29.7811 11.3263 28.7916" stroke="white" stroke-width="1.5" stroke-linecap="round" stroke-linejoin="round"/>
</svg>
