<svg width="36" height="36" viewBox="0 0 36 36" fill="none" xmlns="http://www.w3.org/2000/svg">
<path d="M8.89867 31.9983H7.69501C6.3794 31.9983 5.21666 31.492 4.42225 30.5752C3.62783 29.6572 3.30404 28.401 3.53635 27.1295C3.99134 24.6264 6.37699 22.6668 8.96968 22.6668H12.0005V7.35259C12.0032 6.46538 12.3523 5.61204 12.9778 4.96415C13.6033 4.31626 14.4586 3.92187 15.372 3.86027L28.6123 3.00527C29.1053 2.97509 29.5995 3.04258 30.0647 3.20362C30.5299 3.36466 30.9564 3.61587 31.3181 3.94192C32.0451 4.60096 32.4628 5.53294 32.4628 6.49759L32.4507 23.2581C32.4495 23.5148 32.4363 23.769 32.3869 24.0373C31.932 26.5393 29.5463 28.4989 26.9536 28.4989H25.7499C24.4343 28.4989 23.2716 27.9927 22.4772 27.0759C21.6828 26.1579 21.359 24.9017 21.5913 23.6302C22.0463 21.1271 24.4319 19.1674 27.0246 19.1674H30.0554V13.4962C30.0554 13.1696 29.9206 12.8663 29.6739 12.6435C29.5542 12.5338 29.4122 12.4494 29.257 12.3958C29.1018 12.3421 28.9367 12.3205 28.7723 12.3321L15.5321 13.1871C15.2276 13.2077 14.9425 13.3392 14.734 13.5551C14.5254 13.7711 14.4089 14.0555 14.4078 14.3512V26.7493C14.4078 26.8531 14.3934 26.9534 14.3681 27.0491C14.3573 27.4048 14.344 27.4701 14.3332 27.5366C13.8758 30.0375 11.4902 31.9983 8.89867 31.9983ZM8.96848 24.9996C7.55779 24.9996 6.15552 26.1602 5.90516 27.5355C5.79683 28.135 5.92562 28.6809 6.26626 29.0763C6.59486 29.4554 7.1028 29.6654 7.69501 29.6654H8.89867C10.3094 29.6654 11.7116 28.5048 11.962 27.1295C11.9584 27.1272 11.9752 26.7878 11.9861 24.9996H8.96848ZM27.0234 21.5003C25.6127 21.5003 24.2105 22.6609 23.9601 24.0362C23.8518 24.6357 23.9806 25.1816 24.3212 25.577C24.6498 25.9561 25.1577 26.1661 25.7499 26.1661H26.9536C28.3643 26.1661 29.7666 25.0055 30.0169 23.6302C30.041 23.4984 30.0422 23.3701 30.0422 23.2453L30.0506 21.5003H27.0234ZM15.5296 6.18848C15.2252 6.2091 14.9401 6.34058 14.7315 6.55651C14.523 6.77244 14.4065 7.05684 14.4054 7.35259V11.0525C14.71 10.9475 15.0325 10.8811 15.3696 10.8589L28.6098 10.0039C29.1009 9.97707 29.5932 10.0401 30.053 10.1975V6.49642C30.053 6.16982 29.9182 5.86654 29.6715 5.64375C29.5516 5.53421 29.4096 5.44997 29.2544 5.39636C29.0992 5.34275 28.9343 5.32094 28.7699 5.33231L15.5296 6.18848Z" fill="#892CDC"/>
</svg>
