<svg width="31" height="31" viewBox="0 0 31 31" fill="none" xmlns="http://www.w3.org/2000/svg">
<path d="M11.136 28.5897V23.9895C11.136 22.8237 12.1338 21.8767 13.3697 21.8693H17.9079C19.1494 21.8693 20.1558 22.8185 20.1558 23.9895V28.5764C20.1557 29.5875 21.0206 30.4092 22.0926 30.4166H25.1888C26.6348 30.4201 28.0229 29.8808 29.0467 28.9176C30.0705 27.9545 30.6459 26.6467 30.6459 25.2829V12.2154C30.6459 11.1137 30.1281 10.0687 29.2321 9.36186L18.7137 1.42803C16.8751 0.0403103 14.2491 0.0851388 12.4649 1.5347L2.17274 9.36186C1.23441 10.0478 0.673588 11.096 0.645874 12.2154V25.2695C0.645874 28.1121 3.08911 30.4166 6.10299 30.4166H9.12844C9.64457 30.4201 10.1409 30.2292 10.5071 29.8862C10.8734 29.5432 11.0794 29.0766 11.0794 28.5897H11.136Z" fill="white"/>
</svg>
