<svg width="35" height="36" viewBox="0 0 35 36" fill="none" xmlns="http://www.w3.org/2000/svg">
<path d="M8.39867 31.9983H7.19501C5.8794 31.9983 4.71666 31.4921 3.92225 30.5752C3.12783 29.6573 2.80404 28.401 3.03635 27.1296C3.49134 24.6264 5.87699 22.6668 8.46968 22.6668H11.5005V7.35262C11.5032 6.46541 11.8523 5.61207 12.4778 4.96418C13.1033 4.31629 13.9586 3.9219 14.872 3.8603L28.1123 3.0053C28.6053 2.97512 29.0995 3.04261 29.5647 3.20365C30.0299 3.36469 30.4564 3.6159 30.8181 3.94195C31.5451 4.60099 31.9628 5.53297 31.9628 6.49762L31.9507 23.2582C31.9495 23.5148 31.9363 23.7691 31.8869 24.0374C31.432 26.5394 29.0463 28.499 26.4536 28.499H25.2499C23.9343 28.499 22.7716 27.9927 21.9772 27.0759C21.1828 26.1579 20.859 24.9017 21.0913 23.6303C21.5463 21.1271 23.9319 19.1675 26.5246 19.1675H29.5554V13.4962C29.5554 13.1696 29.4206 12.8664 29.1739 12.6436C29.0542 12.5338 28.9122 12.4494 28.757 12.3958C28.6018 12.3422 28.4367 12.3205 28.2723 12.3321L15.0321 13.1871C14.7276 13.2078 14.4425 13.3392 14.234 13.5552C14.0254 13.7711 13.9089 14.0555 13.9078 14.3512V26.7493C13.9078 26.8531 13.8934 26.9534 13.8681 27.0491C13.8573 27.4049 13.844 27.4702 13.8332 27.5367C13.3758 30.0375 10.9902 31.9983 8.39867 31.9983ZM8.46848 24.9997C7.05779 24.9997 5.65552 26.1603 5.40516 27.5355C5.29683 28.135 5.42562 28.6809 5.76626 29.0764C6.09486 29.4555 6.6028 29.6654 7.19501 29.6654H8.39867C9.80936 29.6654 11.2116 28.5048 11.462 27.1296C11.4584 27.1272 11.4752 26.7878 11.4861 24.9997H8.46848ZM26.5234 21.5003C25.1127 21.5003 23.7105 22.661 23.4601 24.0362C23.3518 24.6357 23.4806 25.1816 23.8212 25.577C24.1498 25.9561 24.6577 26.1661 25.2499 26.1661H26.4536C27.8643 26.1661 29.2666 25.0055 29.5169 23.6303C29.541 23.4985 29.5422 23.3701 29.5422 23.2453L29.5506 21.5003H26.5234ZM15.0296 6.18851C14.7252 6.20913 14.4401 6.34061 14.2315 6.55654C14.023 6.77247 13.9065 7.05687 13.9054 7.35262V11.0526C14.21 10.9476 14.5325 10.8811 14.8696 10.8589L28.1098 10.0039C28.6009 9.9771 29.0932 10.0401 29.553 10.1976V6.49645C29.553 6.16985 29.4182 5.86657 29.1715 5.64378C29.0516 5.53424 28.9096 5.45 28.7544 5.39639C28.5992 5.34278 28.4343 5.32098 28.2699 5.33235L15.0296 6.18851Z" fill="white"/>
</svg>
