<svg width="29" height="29" viewBox="0 0 29 29" fill="none" xmlns="http://www.w3.org/2000/svg">
<mask id="mask0_49_579" style="mask-type:luminance" maskUnits="userSpaceOnUse" x="0" y="0" width="29" height="29">
<path d="M29 0H0V29H29V0Z" fill="white"/>
</mask>
<g mask="url(#mask0_49_579)">
<path d="M25.9394 7.55728C24.2776 9.21905 21.9194 9.78112 19.7811 9.21905C19.219 7.08074 19.7811 4.72249 21.4428 3.06073C23.1046 1.39896 25.4384 0.861326 27.5767 1.4234C28.1388 3.5617 27.6012 5.8955 25.9394 7.55728Z" stroke="#EBC1FF" stroke-linecap="round" stroke-linejoin="round"/>
<path d="M18.5596 19.4341C16.8489 19.4463 15.3093 18.7864 14.1485 17.6991L12.731 16.2816L11.3015 14.852C10.2262 13.7035 9.56641 12.1272 9.56641 10.441C9.56641 8.08273 10.8372 6.04218 12.7434 4.94247C14.6617 6.05439 15.9202 8.09496 15.9202 10.441C15.9202 12.2005 15.1993 13.7645 14.063 14.9375C15.2115 13.789 16.8244 13.0925 18.584 13.0925C20.9177 13.0802 22.9583 14.3388 24.0703 16.2572C22.9583 18.1755 20.9177 19.4341 18.5718 19.4341H18.5596Z" stroke="#EBC1FF" stroke-linecap="round" stroke-linejoin="round"/>
<path d="M10.4091 27.5839C8.69847 27.5962 7.15889 26.9364 5.99809 25.8489L4.5807 24.4315L3.1511 23.0019C2.07583 21.8533 1.41602 20.277 1.41602 18.5909C1.41602 16.2326 2.68677 14.1921 4.59292 13.0924C6.51129 14.2043 7.76983 16.2448 7.76983 18.5909C7.76983 20.3504 7.04892 21.9144 5.91256 23.0875C7.06113 21.9389 8.67403 21.2424 10.4336 21.2424C12.7674 21.2302 14.8079 22.4888 15.9198 24.4071C14.8079 26.3255 12.7674 27.5839 10.4213 27.5839H10.4091Z" stroke="#EBC1FF" stroke-linecap="round" stroke-linejoin="round"/>
<path d="M1.20837 27.7917L5.85155 23.1484" stroke="#EBC1FF" stroke-linecap="round" stroke-linejoin="round"/>
<path d="M14.05 14.9374L12.7181 16.2814" stroke="#EBC1FF" stroke-linecap="round" stroke-linejoin="round"/>
</g>
</svg>
