<svg width="22" height="36" viewBox="0 0 22 36" fill="none" xmlns="http://www.w3.org/2000/svg">
<g clip-path="url(#clip0_81_6201)">
<path d="M11.3719 8.49524C11.3719 8.49524 10.0439 11.7828 12.3239 12.6826" stroke="white" stroke-linecap="round" stroke-linejoin="round"/>
<path d="M9.73998 9.63623C9.73998 9.63623 5.75598 6.06143 14.0733 0.906555C14.0733 0.906555 12.7026 4.05585 15.0066 6.01535C15.5693 6.49235 15.8866 7.2187 15.7533 7.95046C15.5773 8.90447 14.7853 9.788 12.428 9.73922" fill="white" stroke="white" stroke-linecap="round" stroke-linejoin="round"/>
<path d="M21.0066 14.5147C21.516 12.4386 19.748 12.6121 19.748 12.6121C12.252 14.7477 4.15596 13.0322 2.53996 12.65C2.20663 12.5714 1.8493 12.6527 1.6013 12.8939C0.310631 14.1461 1.05996 18.5881 1.8093 19.0137C2.03863 19.1437 2.4573 19.1302 2.93996 19.0652V19.0868H2.86263L2.82796 33.8576C2.82796 33.8576 3.0653 34.9661 4.1213 35.0691H18.5213C18.5213 35.0691 19.6786 35.0691 19.644 33.8576C19.612 32.7464 19.668 21.7591 19.676 19.9297C20.564 19.6722 20.908 18.6261 21.0226 18.1328C21.0573 17.9811 21.0493 17.8266 21.0013 17.6775C20.8653 17.2466 20.6093 16.1191 21.0013 14.5147H21.0066Z" fill="white" stroke="white" stroke-linecap="round" stroke-linejoin="round"/>
<path d="M2.94006 19.1085L2.9054 33.882C2.9054 33.882 3.14273 34.9904 4.19873 35.0934H18.5987C18.5987 35.0934 19.7561 35.0934 19.7214 33.882C19.6867 32.6705 19.7561 19.6966 19.7561 19.6966" fill="white"/>
<path d="M2.94006 19.1085L2.9054 33.882C2.9054 33.882 3.14273 34.9904 4.19873 35.0934H18.5987C18.5987 35.0934 19.7561 35.0934 19.7214 33.882C19.6867 32.6705 19.7561 19.6966 19.7561 19.6966" stroke="white" stroke-linecap="round" stroke-linejoin="round"/>
<path d="M1.70007 19.7158C3.13084 19.5422 5.61161 18.0244 5.39238 18.8505C5.26834 19.3182 5.26834 19.8502 5.30873 20.3067C5.40103 21.3064 6.22892 22.1324 7.2645 22.138C7.91642 22.1408 8.4443 21.8664 8.7645 21.6396C8.98373 21.4856 9.11354 21.2391 9.11931 20.9787L9.17411 18.3129C9.18277 17.8452 9.4395 17.4 9.8693 17.1956C10.3135 16.9827 10.7232 17.0891 11.052 17.2908C11.5828 17.6156 11.8712 18.2065 11.8683 18.8141L11.8337 27.3213C13.1232 29.1443 14.1155 27.3213 14.1155 27.3213C14.5914 27.1197 14.4674 21.7208 14.401 19.6486C14.3751 18.8505 15.0299 18.1532 15.8491 18.1785C16.8645 18.2093 17.7962 18.9569 17.7962 18.9569C18.9126 19.7354 20.3058 20.3059 20.9001 20.1491" stroke="black" stroke-linecap="round" stroke-linejoin="round"/>
</g>
<defs>
<clipPath id="clip0_81_6201">
<rect width="21" height="35" fill="white" transform="translate(0.5 0.5)"/>
</clipPath>
</defs>
</svg>
