<svg width="127" height="127" viewBox="0 0 127 127" fill="none" xmlns="http://www.w3.org/2000/svg">
<g filter="url(#filter0_d_46_578)">
<circle cx="63.5" cy="63.5" r="37.5" fill="#45007B"/>
</g>
<path d="M54.1855 72.6326H47.2727C44.9106 72.6326 43 70.722 43 68.36V59.5713C43 57.2091 44.9106 55.2985 47.2727 55.2985H54.1855L62.6442 48.9068C64.798 47.2741 67.8722 48.82 67.8722 51.5121L67.8028 76.5928C67.8028 79.2154 64.798 80.6918 62.7136 79.1112L54.1855 72.6326Z" stroke="#F6D0FF" stroke-width="2" stroke-linecap="round" stroke-linejoin="round"/>
<path d="M78.8491 54.0479C81.4023 56.6011 83.0001 60.127 83.0001 64.0176C83.0001 67.9082 81.4197 71.4168 78.8491 73.9874" stroke="#F6D0FF" stroke-width="2" stroke-linecap="round" stroke-linejoin="round"/>
<path d="M73.6211 69.975C75.1497 68.4466 76.0875 66.3624 76.0875 64.0176C76.0875 61.6728 75.1497 59.5885 73.6211 58.0601" stroke="#F6D0FF" stroke-width="2" stroke-linecap="round" stroke-linejoin="round"/>
<defs>
<filter id="filter0_d_46_578" x="0" y="0" width="127" height="127" filterUnits="userSpaceOnUse" color-interpolation-filters="sRGB">
<feFlood flood-opacity="0" result="BackgroundImageFix"/>
<feColorMatrix in="SourceAlpha" type="matrix" values="0 0 0 0 0 0 0 0 0 0 0 0 0 0 0 0 0 0 127 0" result="hardAlpha"/>
<feOffset/>
<feGaussianBlur stdDeviation="13"/>
<feComposite in2="hardAlpha" operator="out"/>
<feColorMatrix type="matrix" values="0 0 0 0 0.953417 0 0 0 0 0.820833 0 0 0 0 1 0 0 0 0.5 0"/>
<feBlend mode="normal" in2="BackgroundImageFix" result="effect1_dropShadow_46_578"/>
<feBlend mode="normal" in="SourceGraphic" in2="effect1_dropShadow_46_578" result="shape"/>
</filter>
</defs>
</svg>
