<svg width="33" height="33" viewBox="0 0 33 33" fill="none" xmlns="http://www.w3.org/2000/svg">
<path d="M12.3818 1.97517C11.7053 2.01356 11.0695 2.30091 10.6046 2.77841C10.1396 3.2559 9.88076 3.88743 9.8809 4.54372V25.2696H5.20982C3.00908 25.2696 0.910611 26.997 0.522792 29.1282C0.134974 31.2594 1.6039 32.9868 3.80464 32.9868H7.78907C9.98981 32.9868 12.0883 31.2594 12.4761 29.1282C12.5159 28.9096 12.5239 28.6973 12.5266 28.4877L12.5385 28.4851V11.0262C12.5385 10.7022 12.6648 10.3902 12.8921 10.1524C13.1193 9.9147 13.4309 9.76878 13.7644 9.74384L28.374 8.65571C28.5565 8.64206 28.7399 8.66509 28.9128 8.72334C29.0856 8.78159 29.2442 8.87382 29.3785 8.99423C29.5128 9.11464 29.62 9.26064 29.6933 9.42305C29.7666 9.58547 29.8044 9.76081 29.8044 9.93805V21.411H25.132C22.9313 21.411 20.8328 23.1384 20.445 25.2696C20.0571 27.4008 21.5261 29.1282 23.7268 29.1282H27.7112C29.912 29.1282 32.0105 27.4008 32.3983 25.2696C32.4381 25.0509 32.4461 24.8387 32.4487 24.6291L32.4607 24.6265V3.55977C32.4608 3.20924 32.3869 2.86239 32.2435 2.54051C32.1002 2.21864 31.8904 1.92853 31.6271 1.688C31.3638 1.44746 31.0525 1.26158 30.7124 1.14176C30.3722 1.02194 30.0104 0.970716 29.649 0.991222L12.3818 1.97517Z" fill="#892CDC"/>
</svg>
