<svg width="33" height="33" viewBox="0 0 33 33" fill="none" xmlns="http://www.w3.org/2000/svg">
<path d="M12.8818 1.97517C12.2053 2.01356 11.5695 2.30091 11.1046 2.77841C10.6396 3.2559 10.3808 3.88743 10.3809 4.54372V25.2696H5.70982C3.50908 25.2696 1.41061 26.997 1.02279 29.1282C0.634974 31.2594 2.1039 32.9868 4.30464 32.9868H8.28907C10.4898 32.9868 12.5883 31.2594 12.9761 29.1282C13.0159 28.9096 13.0239 28.6973 13.0266 28.4877L13.0385 28.4851V11.0262C13.0385 10.7022 13.1648 10.3902 13.3921 10.1524C13.6193 9.9147 13.9309 9.76878 14.2644 9.74384L28.874 8.65571C29.0565 8.64206 29.2399 8.66509 29.4128 8.72334C29.5856 8.78159 29.7442 8.87382 29.8785 8.99423C30.0128 9.11464 30.12 9.26064 30.1933 9.42305C30.2666 9.58547 30.3044 9.76081 30.3044 9.93805V21.411H25.632C23.4313 21.411 21.3328 23.1384 20.945 25.2696C20.5571 27.4008 22.0261 29.1282 24.2268 29.1282H28.2112C30.412 29.1282 32.5105 27.4008 32.8983 25.2696C32.9381 25.0509 32.9461 24.8387 32.9487 24.6291L32.9607 24.6265V3.55977C32.9608 3.20924 32.8869 2.86239 32.7435 2.54051C32.6002 2.21864 32.3904 1.92853 32.1271 1.688C31.8638 1.44746 31.5525 1.26158 31.2124 1.14176C30.8722 1.02194 30.5104 0.970716 30.149 0.991222L12.8818 1.97517Z" fill="white"/>
</svg>
