<svg width="31" height="31" viewBox="0 0 31 31" fill="none" xmlns="http://www.w3.org/2000/svg">
<path d="M10.636 28.5897V23.9895C10.636 22.8237 11.6338 21.8767 12.8697 21.8693H17.4079C18.6494 21.8693 19.6558 22.8185 19.6558 23.9895V28.5764C19.6557 29.5875 20.5206 30.4092 21.5926 30.4166H24.6888C26.1348 30.4201 27.5229 29.8808 28.5467 28.9176C29.5705 27.9545 30.1459 26.6467 30.1459 25.2829V12.2154C30.1459 11.1137 29.6281 10.0687 28.7321 9.36186L18.2137 1.42803C16.3751 0.0403103 13.7491 0.0851388 11.9649 1.5347L1.67274 9.36186C0.734412 10.0478 0.173588 11.096 0.145874 12.2154V25.2695C0.145874 28.1121 2.58911 30.4166 5.60299 30.4166H8.62844C9.14457 30.4201 9.64085 30.2292 10.0071 29.8862C10.3734 29.5432 10.5794 29.0766 10.5794 28.5897H10.636Z" fill="#892CDC"/>
</svg>
