<svg width="308" height="321" viewBox="0 0 308 321" fill="none" xmlns="http://www.w3.org/2000/svg">
<rect width="308" height="321" rx="16" fill="#E5B8F4" fill-opacity="0.4"/>
<line x1="29" y1="63.6" x2="280" y2="63.6" stroke="white" stroke-width="0.8"/>
<g clip-path="url(#clip0_92_6806)">
<path d="M114.728 133H116.225V123.136H114.714L112.117 124.981V126.431L114.694 124.653H114.728V133Z" fill="#FDFDFD"/>
</g>
<path d="M150.712 133H157.459V131.708H152.763V131.646L155.005 129.445C156.775 127.695 157.302 126.896 157.302 125.768V125.754C157.302 124.161 155.948 122.972 154.055 122.972C152.127 122.972 150.63 124.25 150.63 126.014V126.055H152.079V126.014C152.093 125.016 152.92 124.236 154.075 124.236C155.073 124.236 155.784 124.906 155.791 125.843V125.856C155.791 126.622 155.497 127.142 154.185 128.454L150.712 131.947V133Z" fill="#EBEBEB"/>
<path d="M193.306 133.164C195.398 133.164 196.881 131.961 196.881 130.272V130.259C196.881 128.878 195.911 128.003 194.461 127.873V127.839C195.664 127.586 196.539 126.766 196.539 125.542V125.528C196.539 124.011 195.254 122.972 193.292 122.972C191.365 122.972 190.052 124.059 189.902 125.706L189.895 125.774H191.33L191.337 125.713C191.433 124.797 192.199 124.223 193.292 124.223C194.407 124.223 195.049 124.776 195.049 125.727V125.74C195.049 126.656 194.284 127.319 193.156 127.319H192V128.509H193.197C194.516 128.509 195.323 129.131 195.323 130.245V130.259C195.323 131.216 194.509 131.886 193.306 131.886C192.082 131.886 191.255 131.271 191.16 130.396L191.153 130.32H189.683L189.69 130.409C189.827 132.016 191.201 133.164 193.306 133.164Z" fill="#EBEBEB"/>
<path d="M233.781 133H235.251V131.038H236.611V129.753H235.251V123.136H233.036L228.845 129.705V131.038H233.781V133ZM230.267 129.773V129.732L233.754 124.346H233.795V129.773H230.267Z" fill="#EBEBEB"/>
<path d="M272.096 133.164C274.222 133.164 275.719 131.776 275.719 129.773V129.76C275.719 127.873 274.358 126.513 272.472 126.513C271.501 126.513 270.681 126.889 270.236 127.552H270.202L270.503 124.428H275.145V123.136H269.266L268.78 128.823H270.12C270.25 128.604 270.407 128.413 270.592 128.256C270.988 127.9 271.515 127.723 272.123 127.723C273.347 127.723 274.215 128.577 274.222 129.787V129.801C274.222 131.024 273.354 131.886 272.109 131.886C271.009 131.886 270.202 131.202 270.072 130.313L270.065 130.259H268.603L268.609 130.341C268.746 131.968 270.12 133.164 272.096 133.164Z" fill="#EBEBEB"/>
<g clip-path="url(#clip1_92_6806)">
<rect x="24" y="156" width="24" height="24" rx="12" fill="#1C5D99"/>
<path d="M36.0684 173.164C38.1465 173.164 39.6709 171.749 39.6709 169.78V169.767C39.6709 167.9 38.3105 166.526 36.4238 166.526C35.084 166.526 34.0859 167.224 33.6963 168.112H33.6621C33.6621 168.023 33.6621 167.935 33.6689 167.846C33.7305 165.891 34.4209 164.257 36.1162 164.257C37.0596 164.257 37.7021 164.722 37.9824 165.46L38.0029 165.528H39.541L39.5205 165.446C39.2061 163.977 37.8867 162.972 36.1299 162.972C33.6621 162.972 32.1924 164.913 32.1924 168.201V168.215C32.1924 171.763 34.0518 173.164 36.0684 173.164ZM33.9629 169.787V169.78C33.9629 168.611 34.8721 167.771 36.0684 167.771C37.2715 167.771 38.1465 168.618 38.1465 169.808V169.821C38.1465 170.97 37.2168 171.879 36.0479 171.879C34.8789 171.879 33.9629 170.956 33.9629 169.787Z" fill="#FDFDFD"/>
</g>
<path d="M72.7494 173H74.3558L78.642 164.462V163.136H71.9291V164.428H77.1312V164.462L72.7494 173Z" fill="#EBEBEB"/>
<g clip-path="url(#clip2_92_6806)">
<path d="M114.667 173.164C116.854 173.164 118.392 171.995 118.392 170.327V170.313C118.392 169.069 117.504 168.085 116.218 167.805V167.771C117.319 167.456 118.037 166.636 118.037 165.59V165.576C118.037 164.072 116.629 162.972 114.667 162.972C112.705 162.972 111.303 164.072 111.303 165.576V165.59C111.303 166.636 112.021 167.456 113.122 167.771V167.805C111.837 168.085 110.941 169.069 110.941 170.313V170.327C110.941 171.995 112.486 173.164 114.667 173.164ZM114.667 167.258C113.573 167.258 112.821 166.622 112.821 165.727V165.713C112.821 164.811 113.573 164.182 114.667 164.182C115.76 164.182 116.519 164.811 116.519 165.713V165.727C116.519 166.622 115.767 167.258 114.667 167.258ZM114.667 171.94C113.409 171.94 112.513 171.223 112.513 170.225V170.211C112.513 169.206 113.402 168.481 114.667 168.481C115.931 168.481 116.82 169.206 116.82 170.211V170.225C116.82 171.223 115.924 171.94 114.667 171.94Z" fill="#FDFDFD"/>
</g>
<path d="M153.932 162.972C151.847 162.972 150.322 164.387 150.322 166.355V166.369C150.322 168.235 151.689 169.609 153.576 169.609C154.916 169.609 155.914 168.912 156.304 168.023H156.338C156.338 168.112 156.338 168.201 156.331 168.29C156.27 170.245 155.579 171.879 153.884 171.879C152.94 171.879 152.298 171.414 152.018 170.676L151.99 170.607H150.459L150.479 170.689C150.794 172.159 152.113 173.164 153.87 173.164C156.338 173.164 157.808 171.223 157.808 167.935V167.921C157.808 164.373 155.948 162.972 153.932 162.972ZM153.925 168.365C152.729 168.365 151.847 167.518 151.847 166.328V166.314C151.847 165.166 152.783 164.257 153.945 164.257C155.121 164.257 156.037 165.18 156.037 166.349V166.355C156.037 167.524 155.128 168.365 153.925 168.365Z" fill="#EBEBEB"/>
<path d="M189.027 173H190.524V163.136H189.013L186.415 164.981V166.431L188.993 164.653H189.027V173ZM196.533 173.164C198.884 173.164 200.299 171.202 200.299 168.071V168.058C200.299 164.927 198.884 162.972 196.533 162.972C194.174 162.972 192.766 164.927 192.766 168.058V168.071C192.766 171.202 194.174 173.164 196.533 173.164ZM196.533 171.886C195.124 171.886 194.311 170.437 194.311 168.071V168.058C194.311 165.692 195.124 164.257 196.533 164.257C197.934 164.257 198.754 165.692 198.754 168.058V168.071C198.754 170.437 197.934 171.886 196.533 171.886Z" fill="#EBEBEB"/>
<path d="M229.529 173H231.026V163.136H229.515L226.918 164.981V166.431L229.495 164.653H229.529V173ZM235.927 173H237.424V163.136H235.914L233.316 164.981V166.431L235.893 164.653H235.927V173Z" fill="#EBEBEB"/>
<path d="M268.008 173H269.505V163.136H267.994L265.396 164.981V166.431L267.974 164.653H268.008V173ZM271.911 173H278.658V171.708H273.962V171.646L276.204 169.445C277.975 167.695 278.501 166.896 278.501 165.768V165.754C278.501 164.161 277.147 162.972 275.254 162.972C273.326 162.972 271.829 164.25 271.829 166.014V166.055H273.278V166.014C273.292 165.016 274.119 164.236 275.274 164.236C276.272 164.236 276.983 164.906 276.99 165.843V165.856C276.99 166.622 276.696 167.142 275.384 168.454L271.911 171.947V173Z" fill="#EBEBEB"/>
<path d="M31.8232 213H33.3203V203.136H31.8096L29.2119 204.981V206.431L31.7891 204.653H31.8232V213ZM39.1719 213.164C41.2637 213.164 42.7471 211.961 42.7471 210.272V210.259C42.7471 208.878 41.7764 208.003 40.3271 207.873V207.839C41.5303 207.586 42.4053 206.766 42.4053 205.542V205.528C42.4053 204.011 41.1201 202.972 39.1582 202.972C37.2305 202.972 35.918 204.059 35.7676 205.706L35.7607 205.774H37.1963L37.2031 205.713C37.2988 204.797 38.0645 204.223 39.1582 204.223C40.2725 204.223 40.915 204.776 40.915 205.727V205.74C40.915 206.656 40.1494 207.319 39.0215 207.319H37.8662V208.509H39.0625C40.3818 208.509 41.1885 209.131 41.1885 210.245V210.259C41.1885 211.216 40.375 211.886 39.1719 211.886C37.9482 211.886 37.1211 211.271 37.0254 210.396L37.0186 210.32H35.5488L35.5557 210.409C35.6924 212.016 37.0664 213.164 39.1719 213.164Z" fill="#EBEBEB"/>
<path d="M71.0541 213H72.5511V203.136H71.0404L68.4427 204.981V206.431L71.0199 204.653H71.0541V213ZM79.6469 213H81.1166V211.038H82.4769V209.753H81.1166V203.136H78.9017L74.7113 209.705V211.038H79.6469V213ZM76.1332 209.773V209.732L79.6195 204.346H79.6605V209.773H76.1332Z" fill="#EBEBEB"/>
<path d="M110.531 213H112.028V203.136H110.517L107.92 204.981V206.431L110.497 204.653H110.531V213ZM117.962 213.164C120.088 213.164 121.585 211.776 121.585 209.773V209.76C121.585 207.873 120.224 206.513 118.338 206.513C117.367 206.513 116.547 206.889 116.102 207.552H116.068L116.369 204.428H121.01V203.136H115.131L114.646 208.823H115.986C116.116 208.604 116.273 208.413 116.458 208.256C116.854 207.9 117.38 207.723 117.989 207.723C119.213 207.723 120.081 208.577 120.088 209.787V209.801C120.088 211.024 119.219 211.886 117.975 211.886C116.875 211.886 116.068 211.202 115.938 210.313L115.931 210.259H114.468L114.475 210.341C114.612 211.968 115.986 213.164 117.962 213.164Z" fill="#EBEBEB"/>
<path d="M149.652 213H151.149V203.136H149.639L147.041 204.981V206.431L149.618 204.653H149.652V213ZM157.268 213.164C159.346 213.164 160.87 211.749 160.87 209.78V209.767C160.87 207.9 159.51 206.526 157.623 206.526C156.283 206.526 155.285 207.224 154.896 208.112H154.861C154.861 208.023 154.861 207.935 154.868 207.846C154.93 205.891 155.62 204.257 157.315 204.257C158.259 204.257 158.901 204.722 159.182 205.46L159.202 205.528H160.74L160.72 205.446C160.405 203.977 159.086 202.972 157.329 202.972C154.861 202.972 153.392 204.913 153.392 208.201V208.215C153.392 211.763 155.251 213.164 157.268 213.164ZM155.162 209.787V209.78C155.162 208.611 156.071 207.771 157.268 207.771C158.471 207.771 159.346 208.618 159.346 209.808V209.821C159.346 210.97 158.416 211.879 157.247 211.879C156.078 211.879 155.162 210.956 155.162 209.787Z" fill="#EBEBEB"/>
<path d="M189.498 213H190.995V203.136H189.485L186.887 204.981V206.431L189.464 204.653H189.498V213ZM193.949 213H195.555L199.841 204.462V203.136H193.128V204.428H198.33V204.462L193.949 213Z" fill="#EBEBEB"/>
<path d="M228.408 213H229.905V203.136H228.394L225.797 204.981V206.431L228.374 204.653H228.408V213ZM235.866 213.164C238.053 213.164 239.591 211.995 239.591 210.327V210.313C239.591 209.069 238.703 208.085 237.418 207.805V207.771C238.518 207.456 239.236 206.636 239.236 205.59V205.576C239.236 204.072 237.828 202.972 235.866 202.972C233.904 202.972 232.503 204.072 232.503 205.576V205.59C232.503 206.636 233.22 207.456 234.321 207.771V207.805C233.036 208.085 232.14 209.069 232.14 210.313V210.327C232.14 211.995 233.685 213.164 235.866 213.164ZM235.866 207.258C234.772 207.258 234.02 206.622 234.02 205.727V205.713C234.02 204.811 234.772 204.182 235.866 204.182C236.96 204.182 237.718 204.811 237.718 205.713V205.727C237.718 206.622 236.966 207.258 235.866 207.258ZM235.866 211.94C234.608 211.94 233.713 211.223 233.713 210.225V210.211C233.713 209.206 234.601 208.481 235.866 208.481C237.13 208.481 238.019 209.206 238.019 210.211V210.225C238.019 211.223 237.124 211.94 235.866 211.94Z" fill="#EBEBEB"/>
<path d="M267.659 213H269.156V203.136H267.646L265.048 204.981V206.431L267.625 204.653H267.659V213ZM275.124 202.972C273.039 202.972 271.515 204.387 271.515 206.355V206.369C271.515 208.235 272.882 209.609 274.769 209.609C276.108 209.609 277.106 208.912 277.496 208.023H277.53C277.53 208.112 277.53 208.201 277.523 208.29C277.462 210.245 276.771 211.879 275.076 211.879C274.133 211.879 273.49 211.414 273.21 210.676L273.183 210.607H271.651L271.672 210.689C271.986 212.159 273.306 213.164 275.062 213.164C277.53 213.164 279 211.223 279 207.935V207.921C279 204.373 277.141 202.972 275.124 202.972ZM275.117 208.365C273.921 208.365 273.039 207.518 273.039 206.328V206.314C273.039 205.166 273.976 204.257 275.138 204.257C276.313 204.257 277.229 205.18 277.229 206.349V206.355C277.229 207.524 276.32 208.365 275.117 208.365Z" fill="#EBEBEB"/>
<path d="M28.3506 253H35.0977V251.708H30.4014V251.646L32.6436 249.445C34.4141 247.695 34.9404 246.896 34.9404 245.768V245.754C34.9404 244.161 33.5869 242.972 31.6934 242.972C29.7656 242.972 28.2686 244.25 28.2686 246.014V246.055H29.7178V246.014C29.7314 245.016 30.5586 244.236 31.7139 244.236C32.7119 244.236 33.4229 244.906 33.4297 245.843V245.856C33.4297 246.622 33.1357 247.142 31.8232 248.454L28.3506 251.947V253ZM40.0469 253.164C42.3984 253.164 43.8135 251.202 43.8135 248.071V248.058C43.8135 244.927 42.3984 242.972 40.0469 242.972C37.6885 242.972 36.2803 244.927 36.2803 248.058V248.071C36.2803 251.202 37.6885 253.164 40.0469 253.164ZM40.0469 251.886C38.6387 251.886 37.8252 250.437 37.8252 248.071V248.058C37.8252 245.692 38.6387 244.257 40.0469 244.257C41.4482 244.257 42.2686 245.692 42.2686 248.058V248.071C42.2686 250.437 41.4482 251.886 40.0469 251.886Z" fill="#EBEBEB"/>
<path d="M68.8461 253H75.5931V251.708H70.8969V251.646L73.139 249.445C74.9095 247.695 75.4359 246.896 75.4359 245.768V245.754C75.4359 244.161 74.0824 242.972 72.1888 242.972C70.2611 242.972 68.764 244.25 68.764 246.014V246.055H70.2133V246.014C70.2269 245.016 71.0541 244.236 72.2094 244.236C73.2074 244.236 73.9183 244.906 73.9252 245.843V245.856C73.9252 246.622 73.6312 247.142 72.3187 248.454L68.8461 251.947V253ZM79.4486 253H80.9457V243.136H79.4349L76.8373 244.981V246.431L79.4144 244.653H79.4486V253Z" fill="#EBEBEB"/>
<path d="M107.325 253H114.072V251.708H109.376V251.646L111.618 249.445C113.388 247.695 113.915 246.896 113.915 245.768V245.754C113.915 244.161 112.561 242.972 110.668 242.972C108.74 242.972 107.243 244.25 107.243 246.014V246.055H108.692V246.014C108.706 245.016 109.533 244.236 110.688 244.236C111.686 244.236 112.397 244.906 112.404 245.843V245.856C112.404 246.622 112.11 247.142 110.797 248.454L107.325 251.947V253ZM115.432 253H122.179V251.708H117.483V251.646L119.725 249.445C121.496 247.695 122.022 246.896 122.022 245.768V245.754C122.022 244.161 120.669 242.972 118.775 242.972C116.847 242.972 115.35 244.25 115.35 246.014V246.055H116.799V246.014C116.813 245.016 117.64 244.236 118.796 244.236C119.794 244.236 120.505 244.906 120.511 245.843V245.856C120.511 246.622 120.217 247.142 118.905 248.454L115.432 251.947V253Z" fill="#EBEBEB"/>
<path d="M146.474 253H153.221V251.708H148.524V251.646L150.767 249.445C152.537 247.695 153.063 246.896 153.063 245.768V245.754C153.063 244.161 151.71 242.972 149.816 242.972C147.889 242.972 146.392 244.25 146.392 246.014V246.055H147.841V246.014C147.854 245.016 148.682 244.236 149.837 244.236C150.835 244.236 151.546 244.906 151.553 245.843V245.856C151.553 246.622 151.259 247.142 149.946 248.454L146.474 251.947V253ZM158.026 253.164C160.118 253.164 161.602 251.961 161.602 250.272V250.259C161.602 248.878 160.631 248.003 159.182 247.873V247.839C160.385 247.586 161.26 246.766 161.26 245.542V245.528C161.26 244.011 159.975 242.972 158.013 242.972C156.085 242.972 154.772 244.059 154.622 245.706L154.615 245.774H156.051L156.058 245.713C156.153 244.797 156.919 244.223 158.013 244.223C159.127 244.223 159.77 244.776 159.77 245.727V245.74C159.77 246.656 159.004 247.319 157.876 247.319H156.721V248.509H157.917C159.236 248.509 160.043 249.131 160.043 250.245V250.259C160.043 251.216 159.229 251.886 158.026 251.886C156.803 251.886 155.976 251.271 155.88 250.396L155.873 250.32H154.403L154.41 250.409C154.547 252.016 155.921 253.164 158.026 253.164Z" fill="#EBEBEB"/>
<path d="M185.848 253H192.595V251.708H187.899V251.646L190.141 249.445C191.911 247.695 192.438 246.896 192.438 245.768V245.754C192.438 244.161 191.084 242.972 189.191 242.972C187.263 242.972 185.766 244.25 185.766 246.014V246.055H187.215V246.014C187.229 245.016 188.056 244.236 189.211 244.236C190.209 244.236 190.92 244.906 190.927 245.843V245.856C190.927 246.622 190.633 247.142 189.321 248.454L185.848 251.947V253ZM198.358 253H199.828V251.038H201.188V249.753H199.828V243.136H197.613L193.422 249.705V251.038H198.358V253ZM194.844 249.773V249.732L198.33 244.346H198.371V249.773H194.844Z" fill="#EBEBEB"/>
<path d="M225.181 253H231.928V251.708H227.232V251.646L229.474 249.445C231.245 247.695 231.771 246.896 231.771 245.768V245.754C231.771 244.161 230.418 242.972 228.524 242.972C226.596 242.972 225.099 244.25 225.099 246.014V246.055H226.548V246.014C226.562 245.016 227.389 244.236 228.545 244.236C229.543 244.236 230.254 244.906 230.26 245.843V245.856C230.26 246.622 229.966 247.142 228.654 248.454L225.181 251.947V253ZM236.816 253.164C238.942 253.164 240.439 251.776 240.439 249.773V249.76C240.439 247.873 239.079 246.513 237.192 246.513C236.221 246.513 235.401 246.889 234.957 247.552H234.922L235.223 244.428H239.865V243.136H233.986L233.501 248.823H234.84C234.97 248.604 235.128 248.413 235.312 248.256C235.709 247.9 236.235 247.723 236.843 247.723C238.067 247.723 238.935 248.577 238.942 249.787V249.801C238.942 251.024 238.074 251.886 236.83 251.886C235.729 251.886 234.922 251.202 234.793 250.313L234.786 250.259H233.323L233.33 250.341C233.466 251.968 234.84 253.164 236.816 253.164Z" fill="#EBEBEB"/>
<path d="M264.31 253H271.057V251.708H266.36V251.646L268.603 249.445C270.373 247.695 270.899 246.896 270.899 245.768V245.754C270.899 244.161 269.546 242.972 267.652 242.972C265.725 242.972 264.228 244.25 264.228 246.014V246.055H265.677V246.014C265.69 245.016 266.518 244.236 267.673 244.236C268.671 244.236 269.382 244.906 269.389 245.843V245.856C269.389 246.622 269.095 247.142 267.782 248.454L264.31 251.947V253ZM276.115 253.164C278.193 253.164 279.718 251.749 279.718 249.78V249.767C279.718 247.9 278.357 246.526 276.471 246.526C275.131 246.526 274.133 247.224 273.743 248.112H273.709C273.709 248.023 273.709 247.935 273.716 247.846C273.777 245.891 274.468 244.257 276.163 244.257C277.106 244.257 277.749 244.722 278.029 245.46L278.05 245.528H279.588L279.567 245.446C279.253 243.977 277.934 242.972 276.177 242.972C273.709 242.972 272.239 244.913 272.239 248.201V248.215C272.239 251.763 274.099 253.164 276.115 253.164ZM274.01 249.787V249.78C274.01 248.611 274.919 247.771 276.115 247.771C277.318 247.771 278.193 248.618 278.193 249.808V249.821C278.193 250.97 277.264 251.879 276.095 251.879C274.926 251.879 274.01 250.956 274.01 249.787Z" fill="#EBEBEB"/>
<path d="M28.8154 293H35.5625V291.708H30.8662V291.646L33.1084 289.445C34.8789 287.695 35.4053 286.896 35.4053 285.768V285.754C35.4053 284.161 34.0518 282.972 32.1582 282.972C30.2305 282.972 28.7334 284.25 28.7334 286.014V286.055H30.1826V286.014C30.1963 285.016 31.0234 284.236 32.1787 284.236C33.1768 284.236 33.8877 284.906 33.8945 285.843V285.856C33.8945 286.622 33.6006 287.142 32.2881 288.454L28.8154 291.947V293ZM37.4697 293H39.0762L43.3623 284.462V283.136H36.6494V284.428H41.8516V284.462L37.4697 293Z" fill="#EBEBEB"/>
<path d="M67.725 293H74.472V291.708H69.7758V291.646L72.0179 289.445C73.7885 287.695 74.3148 286.896 74.3148 285.768V285.754C74.3148 284.161 72.9613 282.972 71.0677 282.972C69.14 282.972 67.6429 284.25 67.6429 286.014V286.055H69.0922V286.014C69.1058 285.016 69.933 284.236 71.0883 284.236C72.0863 284.236 72.7972 284.906 72.8041 285.843V285.856C72.8041 286.622 72.5101 287.142 71.1976 288.454L67.725 291.947V293ZM79.3871 293.164C81.5746 293.164 83.1127 291.995 83.1127 290.327V290.313C83.1127 289.069 82.224 288.085 80.9388 287.805V287.771C82.0394 287.456 82.7572 286.636 82.7572 285.59V285.576C82.7572 284.072 81.349 282.972 79.3871 282.972C77.4252 282.972 76.0238 284.072 76.0238 285.576V285.59C76.0238 286.636 76.7416 287.456 77.8422 287.771V287.805C76.557 288.085 75.6615 289.069 75.6615 290.313V290.327C75.6615 291.995 77.2064 293.164 79.3871 293.164ZM79.3871 287.258C78.2933 287.258 77.5414 286.622 77.5414 285.727V285.713C77.5414 284.811 78.2933 284.182 79.3871 284.182C80.4808 284.182 81.2396 284.811 81.2396 285.713V285.727C81.2396 286.622 80.4877 287.258 79.3871 287.258ZM79.3871 291.94C78.1293 291.94 77.2338 291.223 77.2338 290.225V290.211C77.2338 289.206 78.1224 288.481 79.3871 288.481C80.6517 288.481 81.5404 289.206 81.5404 290.211V290.225C81.5404 291.223 80.6449 291.94 79.3871 291.94Z" fill="#EBEBEB"/>
<path d="M106.969 293H113.716V291.708H109.02V291.646L111.262 289.445C113.033 287.695 113.559 286.896 113.559 285.768V285.754C113.559 284.161 112.206 282.972 110.312 282.972C108.384 282.972 106.887 284.25 106.887 286.014V286.055H108.337V286.014C108.35 285.016 109.177 284.236 110.333 284.236C111.331 284.236 112.042 284.906 112.048 285.843V285.856C112.048 286.622 111.755 287.142 110.442 288.454L106.969 291.947V293ZM118.652 282.972C116.567 282.972 115.043 284.387 115.043 286.355V286.369C115.043 288.235 116.41 289.609 118.297 289.609C119.636 289.609 120.634 288.912 121.024 288.023H121.058C121.058 288.112 121.058 288.201 121.051 288.29C120.99 290.245 120.299 291.879 118.604 291.879C117.661 291.879 117.018 291.414 116.738 290.676L116.711 290.607H115.179L115.2 290.689C115.514 292.159 116.834 293.164 118.59 293.164C121.058 293.164 122.528 291.223 122.528 287.935V287.921C122.528 284.373 120.669 282.972 118.652 282.972ZM118.645 288.365C117.449 288.365 116.567 287.518 116.567 286.328V286.314C116.567 285.166 117.504 284.257 118.666 284.257C119.841 284.257 120.757 285.18 120.757 286.349V286.355C120.757 287.524 119.848 288.365 118.645 288.365Z" fill="#EBEBEB"/>
<path d="M149.611 293.164C151.703 293.164 153.187 291.961 153.187 290.272V290.259C153.187 288.878 152.216 288.003 150.767 287.873V287.839C151.97 287.586 152.845 286.766 152.845 285.542V285.528C152.845 284.011 151.56 282.972 149.598 282.972C147.67 282.972 146.357 284.059 146.207 285.706L146.2 285.774H147.636L147.643 285.713C147.738 284.797 148.504 284.223 149.598 284.223C150.712 284.223 151.354 284.776 151.354 285.727V285.74C151.354 286.656 150.589 287.319 149.461 287.319H148.306V288.509H149.502C150.821 288.509 151.628 289.131 151.628 290.245V290.259C151.628 291.216 150.814 291.886 149.611 291.886C148.388 291.886 147.561 291.271 147.465 290.396L147.458 290.32H145.988L145.995 290.409C146.132 292.016 147.506 293.164 149.611 293.164ZM158.231 293.164C160.583 293.164 161.998 291.202 161.998 288.071V288.058C161.998 284.927 160.583 282.972 158.231 282.972C155.873 282.972 154.465 284.927 154.465 288.058V288.071C154.465 291.202 155.873 293.164 158.231 293.164ZM158.231 291.886C156.823 291.886 156.01 290.437 156.01 288.071V288.058C156.01 285.692 156.823 284.257 158.231 284.257C159.633 284.257 160.453 285.692 160.453 288.058V288.071C160.453 290.437 159.633 291.886 158.231 291.886Z" fill="#EBEBEB"/>
<path d="M190.107 293.164C192.199 293.164 193.682 291.961 193.682 290.272V290.259C193.682 288.878 192.711 288.003 191.262 287.873V287.839C192.465 287.586 193.34 286.766 193.34 285.542V285.528C193.34 284.011 192.055 282.972 190.093 282.972C188.165 282.972 186.853 284.059 186.703 285.706L186.696 285.774H188.131L188.138 285.713C188.234 284.797 188.999 284.223 190.093 284.223C191.207 284.223 191.85 284.776 191.85 285.727V285.74C191.85 286.656 191.084 287.319 189.956 287.319H188.801V288.509H189.997C191.317 288.509 192.123 289.131 192.123 290.245V290.259C192.123 291.216 191.31 291.886 190.107 291.886C188.883 291.886 188.056 291.271 187.96 290.396L187.953 290.32H186.484L186.491 290.409C186.627 292.016 188.001 293.164 190.107 293.164ZM197.633 293H199.13V283.136H197.62L195.022 284.981V286.431L197.599 284.653H197.633V293Z" fill="#EBEBEB"/>
<path d="M39.8111 36.399H32.3311L30.6651 40.309H29.8661L35.6291 26.879H36.4961L42.2591 40.309H41.4771L39.8111 36.399ZM39.5051 35.719L36.0711 27.678L32.6371 35.719H39.5051ZM47.5733 40.547C46.8479 40.547 46.2019 40.377 45.6353 40.037C45.0799 39.697 44.6436 39.2153 44.3263 38.592C44.0089 37.9573 43.8503 37.232 43.8503 36.416V30.789H44.5643V36.297C44.5643 37.4417 44.8419 38.3257 45.3973 38.949C45.9639 39.5723 46.7403 39.884 47.7263 39.884C48.4063 39.884 49.0296 39.68 49.5963 39.272C50.1743 38.8753 50.6333 38.3597 50.9733 37.725C51.3133 37.079 51.4833 36.4217 51.4833 35.753V30.789H52.1973V40.309H51.4833V37.946C51.4039 38.2747 51.1943 38.643 50.8543 39.051C50.5256 39.459 50.0779 39.8103 49.5113 40.105C48.9446 40.3997 48.2986 40.547 47.5733 40.547ZM60.0033 44.661C58.7453 44.661 57.748 44.3493 57.0113 43.726C56.286 43.114 55.827 42.3207 55.6343 41.346H56.3823C56.5183 42.1053 56.8867 42.7343 57.4873 43.233C58.0993 43.743 58.938 43.998 60.0033 43.998C61.114 43.998 62.0093 43.6467 62.6893 42.944C63.3693 42.2527 63.7093 41.2893 63.7093 40.054V38.031C63.5733 38.4163 63.3183 38.8017 62.9443 39.187C62.5817 39.5723 62.1113 39.8953 61.5333 40.156C60.9553 40.4167 60.315 40.547 59.6123 40.547C58.7397 40.547 57.952 40.326 57.2493 39.884C56.5467 39.4533 55.9913 38.8583 55.5833 38.099C55.1867 37.3283 54.9883 36.4783 54.9883 35.549C54.9883 34.6197 55.1867 33.7753 55.5833 33.016C55.9913 32.2453 56.5467 31.6447 57.2493 31.214C57.952 30.772 58.7397 30.551 59.6123 30.551C60.315 30.551 60.9553 30.6813 61.5333 30.942C62.1113 31.2027 62.5817 31.5257 62.9443 31.911C63.3183 32.2963 63.5733 32.6817 63.7093 33.067V30.789H64.4233V40.054C64.4233 40.972 64.242 41.7767 63.8793 42.468C63.5167 43.1707 63.001 43.709 62.3323 44.083C61.6637 44.4683 60.8873 44.661 60.0033 44.661ZM59.6633 39.884C60.4453 39.884 61.1423 39.6913 61.7543 39.306C62.3777 38.932 62.8593 38.4163 63.1993 37.759C63.5507 37.0903 63.7263 36.3537 63.7263 35.549C63.7263 34.7443 63.5507 34.0133 63.1993 33.356C62.8593 32.6873 62.3777 32.166 61.7543 31.792C61.1423 31.4067 60.4453 31.214 59.6633 31.214C58.8813 31.214 58.19 31.4067 57.5893 31.792C56.9887 32.166 56.524 32.6817 56.1953 33.339C55.8667 33.9963 55.7023 34.733 55.7023 35.549C55.7023 36.365 55.8667 37.1017 56.1953 37.759C56.524 38.4163 56.9887 38.932 57.5893 39.306C58.19 39.6913 58.8813 39.884 59.6633 39.884ZM71.1721 40.547C70.4467 40.547 69.8007 40.377 69.2341 40.037C68.6787 39.697 68.2424 39.2153 67.9251 38.592C67.6077 37.9573 67.4491 37.232 67.4491 36.416V30.789H68.1631V36.297C68.1631 37.4417 68.4407 38.3257 68.9961 38.949C69.5627 39.5723 70.3391 39.884 71.3251 39.884C72.0051 39.884 72.6284 39.68 73.1951 39.272C73.7731 38.8753 74.2321 38.3597 74.5721 37.725C74.9121 37.079 75.0821 36.4217 75.0821 35.753V30.789H75.7961V40.309H75.0821V37.946C75.0027 38.2747 74.7931 38.643 74.4531 39.051C74.1244 39.459 73.6767 39.8103 73.1101 40.105C72.5434 40.3997 71.8974 40.547 71.1721 40.547ZM82.6501 30.551C83.3981 30.551 84.0725 30.6643 84.6731 30.891C85.2738 31.1063 85.7498 31.4067 86.1011 31.792C86.4525 32.166 86.6338 32.5797 86.6451 33.033H85.9311C85.9198 32.693 85.7611 32.3813 85.4551 32.098C85.1605 31.8147 84.7638 31.5937 84.2651 31.435C83.7665 31.2763 83.2111 31.197 82.5991 31.197C82.0098 31.197 81.4771 31.2763 81.0011 31.435C80.5251 31.5937 80.1511 31.8147 79.8791 32.098C79.6071 32.3813 79.4711 32.693 79.4711 33.033C79.4711 33.4183 79.5618 33.747 79.7431 34.019C79.9358 34.291 80.2871 34.5233 80.7971 34.716C81.3071 34.9087 82.0325 35.0617 82.9731 35.175C84.3785 35.3337 85.3815 35.634 85.9821 36.076C86.5941 36.518 86.9001 37.0903 86.9001 37.793C86.9001 38.3597 86.7188 38.847 86.3561 39.255C85.9935 39.6743 85.4948 39.9917 84.8601 40.207C84.2255 40.4337 83.5171 40.547 82.7351 40.547C81.8965 40.547 81.1711 40.428 80.5591 40.19C79.9585 39.952 79.4881 39.6347 79.1481 39.238C78.8195 38.8413 78.6268 38.405 78.5701 37.929H79.3011C79.3351 38.2577 79.4825 38.575 79.7431 38.881C80.0038 39.1757 80.3891 39.4193 80.8991 39.612C81.4091 39.8047 82.0381 39.901 82.7861 39.901C83.4321 39.901 84.0101 39.8103 84.5201 39.629C85.0415 39.459 85.4495 39.2153 85.7441 38.898C86.0388 38.5807 86.1861 38.2237 86.1861 37.827C86.1861 37.453 86.0785 37.1413 85.8631 36.892C85.6478 36.6313 85.2795 36.4103 84.7581 36.229C84.2368 36.0477 83.5058 35.9003 82.5651 35.787C81.1825 35.617 80.2021 35.311 79.6241 34.869C79.0461 34.427 78.7571 33.8377 78.7571 33.101C78.7571 32.591 78.9215 32.1433 79.2501 31.758C79.5901 31.3727 80.0548 31.078 80.6441 30.874C81.2335 30.6587 81.9021 30.551 82.6501 30.551ZM93.8279 31.452H91.5159V40.309H90.8019V31.452H88.4899V30.789H90.8019V27.831H91.5159V30.789H93.8279V31.452ZM104.678 26.59C105.551 26.59 106.31 26.7487 106.956 27.066C107.613 27.3833 108.118 27.8367 108.469 28.426C108.82 29.0153 108.996 29.7067 108.996 30.5C108.996 31.214 108.769 31.9223 108.316 32.625C107.874 33.3163 107.183 34.1153 106.242 35.022L101.414 39.646H109.591V40.309H100.343V39.646L105.528 34.682C106.457 33.7867 107.143 33.0047 107.585 32.336C108.038 31.656 108.265 31.044 108.265 30.5C108.265 29.48 107.936 28.6867 107.279 28.12C106.633 27.542 105.766 27.253 104.678 27.253C103.919 27.253 103.261 27.4173 102.706 27.746C102.162 28.0747 101.743 28.5167 101.448 29.072C101.165 29.616 101.023 30.211 101.023 30.857H100.292C100.292 30.0863 100.462 29.378 100.802 28.732C101.153 28.086 101.658 27.5703 102.315 27.185C102.984 26.7883 103.771 26.59 104.678 26.59ZM116.45 26.59C117.379 26.59 118.201 26.8563 118.915 27.389C119.64 27.9103 120.207 28.698 120.615 29.752C121.034 30.7947 121.244 32.0753 121.244 33.594C121.244 35.1127 121.034 36.399 120.615 37.453C120.207 38.4957 119.64 39.2777 118.915 39.799C118.201 40.3317 117.379 40.598 116.45 40.598C115.521 40.598 114.693 40.3317 113.968 39.799C113.254 39.2777 112.687 38.4957 112.268 37.453C111.86 36.399 111.656 35.1127 111.656 33.594C111.656 32.0753 111.86 30.7947 112.268 29.752C112.687 28.698 113.254 27.9103 113.968 27.389C114.693 26.8563 115.521 26.59 116.45 26.59ZM116.45 27.253C115.691 27.253 114.999 27.4967 114.376 27.984C113.764 28.4713 113.277 29.1967 112.914 30.16C112.563 31.112 112.387 32.2567 112.387 33.594C112.387 34.9313 112.563 36.0817 112.914 37.045C113.277 37.997 113.764 38.7167 114.376 39.204C114.999 39.6913 115.691 39.935 116.45 39.935C117.209 39.935 117.895 39.6913 118.507 39.204C119.13 38.7167 119.618 37.997 119.969 37.045C120.332 36.0817 120.513 34.9313 120.513 33.594C120.513 32.2567 120.332 31.112 119.969 30.16C119.618 29.1967 119.13 28.4713 118.507 27.984C117.895 27.4967 117.209 27.253 116.45 27.253ZM127.646 26.59C128.519 26.59 129.278 26.7487 129.924 27.066C130.581 27.3833 131.086 27.8367 131.437 28.426C131.788 29.0153 131.964 29.7067 131.964 30.5C131.964 31.214 131.737 31.9223 131.284 32.625C130.842 33.3163 130.151 34.1153 129.21 35.022L124.382 39.646H132.559V40.309H123.311V39.646L128.496 34.682C129.425 33.7867 130.111 33.0047 130.553 32.336C131.006 31.656 131.233 31.044 131.233 30.5C131.233 29.48 130.904 28.6867 130.247 28.12C129.601 27.542 128.734 27.253 127.646 27.253C126.887 27.253 126.229 27.4173 125.674 27.746C125.13 28.0747 124.711 28.5167 124.416 29.072C124.133 29.616 123.991 30.211 123.991 30.857H123.26C123.26 30.0863 123.43 29.378 123.77 28.732C124.121 28.086 124.626 27.5703 125.283 27.185C125.952 26.7883 126.739 26.59 127.646 26.59ZM138.925 26.59C139.809 26.59 140.585 26.76 141.254 27.1C141.934 27.44 142.455 27.8933 142.818 28.46C143.181 29.0267 143.362 29.6273 143.362 30.262C143.362 31.0667 143.113 31.758 142.614 32.336C142.115 32.9027 141.509 33.288 140.795 33.492C141.611 33.662 142.302 34.036 142.869 34.614C143.436 35.1807 143.719 35.9173 143.719 36.824C143.719 37.4927 143.526 38.116 143.141 38.694C142.767 39.272 142.229 39.731 141.526 40.071C140.835 40.4223 140.024 40.598 139.095 40.598C138.177 40.598 137.367 40.4167 136.664 40.054C135.961 39.7027 135.417 39.2267 135.032 38.626C134.658 38.014 134.471 37.351 134.471 36.637H135.202C135.202 37.2263 135.361 37.776 135.678 38.286C135.995 38.7847 136.449 39.1813 137.038 39.476C137.627 39.782 138.313 39.935 139.095 39.935C139.877 39.935 140.563 39.7933 141.152 39.51C141.741 39.2267 142.195 38.8527 142.512 38.388C142.829 37.912 142.988 37.402 142.988 36.858C142.988 35.9287 142.631 35.1977 141.917 34.665C141.203 34.121 140.206 33.849 138.925 33.849H137.344V33.22H138.925C139.639 33.22 140.274 33.0953 140.829 32.846C141.396 32.5853 141.838 32.234 142.155 31.792C142.472 31.35 142.631 30.8513 142.631 30.296C142.631 29.7633 142.478 29.2647 142.172 28.8C141.877 28.3353 141.447 27.9613 140.88 27.678C140.325 27.3947 139.673 27.253 138.925 27.253C138.177 27.253 137.52 27.406 136.953 27.712C136.398 28.018 135.973 28.4317 135.678 28.953C135.383 29.4743 135.236 30.041 135.236 30.653H134.505C134.505 29.9163 134.686 29.2363 135.049 28.613C135.412 27.9897 135.927 27.4967 136.596 27.134C137.265 26.7713 138.041 26.59 138.925 26.59Z" fill="white"/>
<defs>
<clipPath id="clip0_92_6806">
<rect x="102.667" y="116" width="24" height="24" rx="12" fill="white"/>
</clipPath>
<clipPath id="clip1_92_6806">
<rect x="24" y="156" width="24" height="24" rx="12" fill="white"/>
</clipPath>
<clipPath id="clip2_92_6806">
<rect x="102.667" y="156" width="24" height="24" rx="12" fill="white"/>
</clipPath>
</defs>
</svg>
