<svg width="36" height="36" viewBox="0 0 36 36" fill="none" xmlns="http://www.w3.org/2000/svg">
<path d="M13.8542 30.7916V26.3193C13.8542 25.1818 14.7815 24.2575 15.9306 24.2498H20.1394C21.2939 24.2498 22.2298 25.1764 22.2298 26.3193V30.8055C22.2296 31.7713 23.0082 32.5607 23.9835 32.5833H26.7894C29.5866 32.5833 31.8541 30.3385 31.8541 27.5693V14.8468C31.8391 13.7575 31.3225 12.7345 30.4511 12.069L20.8549 4.41607C19.1738 3.08354 16.784 3.08354 15.1028 4.41607L5.54871 12.0829C4.67405 12.7457 4.15652 13.7704 4.14575 14.8607V27.5693C4.14575 30.3385 6.41328 32.5833 9.21041 32.5833H12.0163C13.0159 32.5833 13.8261 31.7812 13.8261 30.7916" stroke="#892CDC" stroke-width="1.5" stroke-linecap="round" stroke-linejoin="round"/>
</svg>
